Coordinates
version=1
nRows=15
nColumns=34
inDegrees=yes

Units are S.I. units (second, meters, Newtons, ...)
If the header above contains a line with 'inDegrees', this indicates whether rotational values are in degrees (yes) or radians (no).

endheader
time	pelvis_tilt	pelvis_list	pelvis_rotation	pelvis_tx	pelvis_ty	pelvis_tz	hip_flexion_r	hip_adduction_r	hip_rotation_r	knee_angle_r	ankle_angle_r	subtalar_angle_r	mtp_angle_r	hip_flexion_l	hip_adduction_l	hip_rotation_l	knee_angle_l	ankle_angle_l	subtalar_angle_l	mtp_angle_l	lumbar_extension	lumbar_bending	lumbar_rotation	arm_flex_r	arm_add_r	arm_rot_r	elbow_flex_r	pro_sup_r	arm_flex_l	arm_add_l	arm_rot_l	elbow_flex_l	pro_sup_l
      4.35000000	     -4.00767304	     -0.20604975	      5.43608834	      0.67749110	      0.98306524	     -0.08113909	     14.70219959	     -6.07066078	     -2.92836298	     21.04227036	    -11.73251577	     -7.32340492	      0.00000000	     14.78736830	     -2.53983553	      2.10762945	     23.57326028	     -9.94001662	     -3.22008196	      0.00000000	     -4.91534453	      2.56827351	     -1.47448130	     -2.09662710	    -22.24613201	     29.80970373	    122.42695648	     88.92075487	      6.37135736	    -13.77716912	     27.07524494	    106.30173366	     75.28512120
      4.36666670	     -3.67335379	      0.24180266	      5.70144947	      0.67317281	      0.95078735	     -0.08247756	     16.03342362	     -6.44448487	     -1.63178782	     26.08446453	     -1.12657246	    -10.52140529	      0.00000000	     16.13555823	     -1.72437202	      2.82538518	     28.55799667	      1.51938663	     -4.35883249	      0.00000000	     -4.87071951	      1.94523076	     -1.48410092	     -2.97774298	    -22.76578781	     29.60886163	    117.88588647	     88.98099889	      4.63936199	    -13.84232218	     26.15104683	    100.73087544	     74.84076060
      4.38333330	     -3.61608910	      0.66150640	      5.68684659	      0.66654372	      0.92730498	     -0.08195356	     18.73507062	     -6.65929071	      0.00527991	     32.28127685	      9.35279449	    -12.78502699	      0.00000000	     18.43037556	     -0.92923059	      3.61031005	     34.02949038	     11.86850238	     -4.98306767	      0.00000000	     -5.14021625	      1.15033052	     -1.77440752	     -3.50625448	    -22.94772469	     29.43214588	    112.18568532	     89.10663280	      3.57105735	    -13.51638983	     24.75671527	     93.78692863	     74.52386384
      4.40000000	     -3.67628489	      0.72610138	      5.50477589	      0.65884893	      0.91642173	     -0.08196746	     22.50415660	     -6.50902778	      0.96629614	     39.07114239	     16.00545004	    -14.09039334	      0.00000000	     21.67298808	     -0.56006885	      3.74665271	     39.98789857	     18.54897816	     -5.49193847	      0.00000000	     -5.97934409	      0.77185955	     -2.31534690	     -3.94811980	    -22.35595371	     29.36975885	    105.44368303	     89.28925502	      3.21031940	    -12.61160724	     23.15205206	     85.44134544	     74.43227219
      4.41666670	     -3.71118644	      0.96384201	      5.34478659	      0.65615098	      0.90065727	     -0.08520769	     26.37845131	     -6.83875632	      1.75003670	     46.05833212	     21.48349389	    -14.51486860	      0.00000000	     25.22261669	     -0.01604242	      3.76067105	     46.71174262	     23.68822195	     -6.47439093	      0.00000000	     -6.65602735	      0.29114513	     -2.68694616	     -3.71425288	    -21.14485595	     28.89067826	     96.35641283	     89.40058344	      3.34699569	    -11.52954947	     21.45837320	     76.25536856	     74.55608330
      4.43333330	     -4.09303050	      1.19772207	      5.46397707	      0.65518851	      0.88840702	     -0.08479036	     29.81972468	     -7.20332353	      2.20592769	     51.69012570	     24.94234978	    -14.80534697	      0.00000000	     28.06613225	      0.45543959	      3.83107231	     51.63345617	     27.28699029	     -6.99606824	      0.00000000	     -6.36796513	     -0.05946874	     -3.03395864	     -2.59820468	    -19.08229382	     29.03281307	     85.39301685	     89.61661358	      3.65351100	    -10.31924734	     20.28998306	     65.35587146	     75.28499280
      4.45000000	     -3.99040418	      1.52964356	      5.28461547	      0.65047039	      0.89492698	     -0.08375132	     31.29889322	     -7.31664693	      2.80177695	     54.21578005	     25.79723887	    -15.01058417	      0.00000000	     29.10160544	      0.88296586	      3.90431290	     53.51101675	     28.84902432	     -6.99558994	      0.00000000	     -6.70429134	     -0.39160355	     -3.52218698	     -0.52087369	    -16.27065823	     29.09741957	     72.84365921	     89.82352604	      4.41752419	     -9.05554239	     18.90142106	     53.73104371	     76.27970658
      4.46666670	     -3.71762690	      1.80791263	      5.27868747	      0.64981677	      0.89573053	     -0.07857096	     31.15143626	     -7.22448079	      3.14132098	     54.40741360	     26.04111997	    -14.61220994	      0.00000000	     28.73246086	      0.78535346	      3.83885583	     53.28222264	     28.90435972	     -6.33046068	      0.00000000	     -6.88686312	     -0.87404001	     -4.28845165	      1.97804565	    -13.12286486	     29.06935641	     60.28921742	     90.00291629	      5.01984578	     -7.92053205	     17.75820868	     41.18036062	     77.40804041
      4.48333330	     -2.92539529	      2.25191875	      5.40773609	      0.65988780	      0.90949441	     -0.07949336	     28.31978153	     -7.50668400	      2.83341074	     51.42199527	     25.20115947	    -14.07858477	      0.00000000	     25.97967911	      0.93515695	      3.89828984	     50.22009973	     27.79342941	     -5.15789777	      0.00000000	     -7.37520954	     -1.36366392	     -4.89597894	      3.65598916	    -10.06308854	     28.13115353	     48.71175120	     89.92958012	      4.56703929	     -7.37139383	     16.73477568	     30.57562359	     78.09620306
      4.50000000	     -2.43026292	      2.34720070	      5.44777017	      0.65524169	      0.91555057	     -0.07460025	     26.03228090	     -7.36077603	      2.56157147	     48.22009559	     24.02434946	    -13.53037499	      0.00000000	     23.62728781	      0.65518815	      3.88539352	     46.61139505	     26.18468620	     -4.11169420	      0.00000000	     -7.37832970	     -1.57982505	     -5.11306256	      4.59813790	     -8.01395395	     28.08262489	     39.65326415	     89.78717936	      4.02234097	     -7.14646866	     16.00952698	     22.83215582	     78.90527601
      4.51666670	     -1.99692794	      2.64875355	      5.45310624	      0.64766302	      0.92470460	     -0.07605269	     23.94867643	     -7.49986384	      2.60484754	     44.68601320	     22.20080454	    -13.37567821	      0.00000000	     21.15774790	      0.77921391	      3.75524089	     42.44755543	     24.24031510	     -3.81037362	      0.00000000	     -7.59118212	     -2.02902857	     -4.96390767	      4.90731178	     -6.97490525	     27.93012644	     33.47634932	     89.48985227	      3.39649139	     -7.17650506	     15.49657979	     18.61410779	     79.28771492
      4.53333330	     -1.73170077	      2.68110468	      5.64538088	      0.64015627	      0.94243358	     -0.07476282	     21.76739899	     -7.41592290	      2.35090132	     40.12846178	     19.82326423	    -13.13656274	      0.00000000	     18.96999472	      0.85559520	      4.13590709	     37.88344062	     21.24034752	     -3.85448951	      0.00000000	     -7.67036466	     -2.03707825	     -4.85012235	      5.04394706	     -6.83219230	     27.96650953	     29.75338649	     89.15870426	      2.70039704	     -7.36074143	     15.18236819	     16.75830688	     79.55948729
      4.55000000	     -1.60565595	      2.61315314	      5.95202191	      0.62971197	      0.95784820	     -0.07194605	     19.87094325	     -7.26134784	      1.91662090	     35.43254437	     17.12728557	    -12.69799532	      0.00000000	     17.11008562	      0.84150289	      4.64524960	     33.19187630	     17.89490606	     -3.93004633	      0.00000000	     -7.94470868	     -1.90722813	     -4.94749739	      5.49565175	     -7.10854669	     28.21971973	     27.86590669	     88.83897122	      2.29943732	     -7.66365677	     15.09299693	     16.30895084	     79.79429046
      4.56666670	     -1.44539684	      2.43167049	      6.34542916	      0.62111237	      0.97239665	     -0.06783102	     17.72215012	     -6.96028682	      1.09554525	     30.39985696	     14.55748484	    -12.26927174	      0.00000000	     15.39008956	      0.59615539	      5.22447390	     28.67753340	     14.64670082	     -3.61660026	      0.00000000	     -8.27411325	     -1.67088061	     -4.90055891	      5.98996607	     -7.57957552	     28.66943735	     27.32624578	     88.56524836	      2.09692928	     -7.94256321	     15.29489305	     16.73250571	     80.01985055
      4.58333330	     -1.26872687	      2.16089619	      6.51197440	      0.61512993	      0.98871604	     -0.06554422	     15.36189141	     -6.52390828	      0.00207408	     25.20792534	     12.13844631	    -11.31701529	      0.00000000	     13.53052334	      0.12422511	      5.60850568	     24.21483587	     11.54160925	     -3.12364664	      0.00000000	     -8.66460074	     -1.31744414	     -4.91420433	      6.66144017	     -8.12243816	     29.09062368	     27.50943186	     88.35733235	      2.00408432	     -8.06795899	     15.71053336	     17.48989714	     80.18899854
